<svg xmlns="http://www.w3.org/2000/svg" width="40" height="32" viewBox="0 0 40 32"><g><g><g/><g><g><g><path fill="#555" d="M32.549 7.948H18.118l-2.87-3.411a.49.49 0 0 0-.393-.177H3.212A3.235 3.235 0 0 0 0 7.596V28.58a3.235 3.235 0 0 0 3.231 3.231H32.55a3.235 3.235 0 0 0 3.231-3.231v-17.4a3.235 3.235 0 0 0-3.231-3.232z"/></g></g></g><g><g><g><path fill="#555" d="M36.783 3.768H22.348L19.478.357a.49.49 0 0 0-.393-.177H7.446A3.231 3.231 0 0 0 4.25 2.972h10.616a1.878 1.878 0 0 1 1.443.671l2.45 2.914h13.785a4.627 4.627 0 0 1 4.62 4.62V27.6a3.231 3.231 0 0 0 2.831-3.204v-17.4a3.235 3.235 0 0 0-3.212-3.228z"/></g></g></g></g></g></svg>