<svg xmlns="http://www.w3.org/2000/svg" width="17" height="23" viewBox="0 0 17 23"><g><g><path d="M14.922 8.625c1.169 0 2.12.967 2.12 2.156v10.063c0 1.189-.951 2.156-2.12 2.156H2.2c-1.168 0-2.12-.967-2.12-2.156V10.78c0-1.189.952-2.156 2.12-2.156h.707V5.75C2.907 2.579 5.443 0 8.561 0c3.119 0 5.654 2.579 5.654 5.75v2.875zm-10.13 0h7.539V5.75c0-2.114-1.69-3.833-3.77-3.833-2.079 0-3.77 1.719-3.77 3.833zm4.712 7.4c.56-.332.942-.944.942-1.65 0-1.057-.845-1.917-1.885-1.917s-1.884.86-1.884 1.917c0 .706.381 1.318.942 1.65v2.183a.95.95 0 0 0 .942.959.95.95 0 0 0 .943-.959z"/></g></g></svg>